<svg xmlns="http://www.w3.org/2000/svg" width="442.405" height="431.544" viewBox="0 0 442.405 431.544">
  <g id="Group_110" data-name="Group 110" transform="translate(-166.232 -1457.018)">
    <g id="Group_99" data-name="Group 99" transform="translate(92 5)">
      <ellipse id="Ellipse_4" data-name="Ellipse 4" cx="102" cy="104" rx="102" ry="104" transform="translate(197 1564)"/>
      <g id="Group_96" data-name="Group 96" transform="translate(80.051 1390.59) rotate(7)">
        <g id="Group_80" data-name="Group 80" transform="translate(203.121 -10.723) rotate(30)">
          <path id="Path_46" data-name="Path 46" d="M0,0H54.1V51.8a10,10,0,0,1-10,10H10a10,10,0,0,1-10-10Z" transform="matrix(0.809, -0.588, 0.588, 0.809, 30.928, 61.496)" fill="#7a7a7a"/>
          <g id="Group_57" data-name="Group 57" transform="matrix(0.809, -0.588, 0.588, 0.809, 0, 59.246)">
            <rect id="Rectangle_167" data-name="Rectangle 167" width="23.799" height="79.797"/>
            <rect id="Rectangle_168" data-name="Rectangle 168" width="23.799" height="79.797" transform="translate(76.997 0)"/>
            <rect id="Rectangle_169" data-name="Rectangle 169" width="23.799" height="79.797" transform="translate(90.296 0) rotate(90)"/>
          </g>
        </g>
      </g>
      <g id="Group_97" data-name="Group 97" transform="translate(192.147 1729.186) rotate(14)">
        <g id="Group_80-2" data-name="Group 80" transform="translate(36.491 93.69) rotate(-49)">
          <path id="Rectangle_176" data-name="Rectangle 176" d="M10,0H44.1a10,10,0,0,1,10,10V61.8a0,0,0,0,1,0,0H0a0,0,0,0,1,0,0V10A10,10,0,0,1,10,0Z" transform="matrix(0.809, 0.588, -0.588, 0.809, 67.252, 12.312)" fill="#7a7a7a"/>
          <g id="Group_57-2" data-name="Group 57" transform="matrix(0.809, 0.588, -0.588, 0.809, 46.903, 0)">
            <rect id="Rectangle_167-2" data-name="Rectangle 167" width="23.799" height="79.797" transform="translate(0 0)"/>
            <rect id="Rectangle_168-2" data-name="Rectangle 168" width="23.799" height="79.797" transform="translate(76.997 0)"/>
            <rect id="Rectangle_169-2" data-name="Rectangle 169" width="23.799" height="79.797" transform="translate(10.5 79.797) rotate(-90)"/>
          </g>
        </g>
      </g>
      <g id="Group_109" data-name="Group 109" transform="translate(282.276 1776.164) rotate(-33)">
        <g id="Group_80-3" data-name="Group 80" transform="translate(23.851 109.222) rotate(-49)">
          <path id="Rectangle_176-2" data-name="Rectangle 176" d="M10,0H44.1a10,10,0,0,1,10,10V61.8a0,0,0,0,1,0,0H0a0,0,0,0,1,0,0V10A10,10,0,0,1,10,0Z" transform="matrix(0.809, 0.588, -0.588, 0.809, 67.252, 12.312)" fill="#7a7a7a"/>
          <g id="Group_57-3" data-name="Group 57" transform="matrix(0.809, 0.588, -0.588, 0.809, 46.903, 0)">
            <rect id="Rectangle_167-3" data-name="Rectangle 167" width="23.799" height="79.797" transform="translate(0 0)"/>
            <rect id="Rectangle_168-3" data-name="Rectangle 168" width="23.799" height="79.797" transform="translate(76.997 0)"/>
            <rect id="Rectangle_169-3" data-name="Rectangle 169" width="23.799" height="79.797" transform="translate(10.5 79.797) rotate(-90)"/>
          </g>
        </g>
      </g>
    </g>
    <g id="Group_100" data-name="Group 100" transform="translate(654.237 1656.16) rotate(124)">
      <path id="Path_46-2" data-name="Path 46" d="M0,0H54.1V51.8a10,10,0,0,1-10,10H10a10,10,0,0,1-10-10Z" transform="matrix(0.809, -0.588, 0.588, 0.809, 30.928, 61.496)" fill="#7a7a7a"/>
      <g id="Group_57-4" data-name="Group 57" transform="matrix(0.809, -0.588, 0.588, 0.809, 0, 59.246)">
        <rect id="Rectangle_167-4" data-name="Rectangle 167" width="23.799" height="79.797"/>
        <rect id="Rectangle_168-4" data-name="Rectangle 168" width="23.799" height="79.797" transform="translate(76.997 0)"/>
        <rect id="Rectangle_169-4" data-name="Rectangle 169" width="23.799" height="79.797" transform="translate(90.296 0) rotate(90)"/>
      </g>
    </g>
    <g id="Group_103" data-name="Group 103" transform="translate(326.28 1480.387) rotate(96)">
      <path id="Path_46-3" data-name="Path 46" d="M0,61.8H54.1V10a10,10,0,0,0-10-10H10A10,10,0,0,0,0,10Z" transform="matrix(0.809, 0.588, -0.588, 0.809, 67.252, 12.312)" fill="#7a7a7a"/>
      <g id="Group_57-5" data-name="Group 57" transform="matrix(0.809, 0.588, -0.588, 0.809, 46.903, 0)">
        <rect id="Rectangle_167-5" data-name="Rectangle 167" width="23.799" height="79.797" transform="translate(0 0)"/>
        <rect id="Rectangle_168-5" data-name="Rectangle 168" width="23.799" height="79.797" transform="translate(76.997 0)"/>
        <rect id="Rectangle_169-5" data-name="Rectangle 169" width="23.799" height="79.797" transform="translate(10.5 79.797) rotate(-90)"/>
      </g>
    </g>
    <g id="Group_107" data-name="Group 107" transform="matrix(0.574, 0.819, -0.819, 0.574, 220.873, 1577.675)">
      <path id="Path_46-4" data-name="Path 46" d="M0,61.8H54.1V10a10,10,0,0,0-10-10H10A10,10,0,0,0,0,10Z" transform="matrix(0.809, 0.588, -0.588, 0.809, 67.252, 12.312)" fill="#7a7a7a"/>
      <g id="Group_57-6" data-name="Group 57" transform="matrix(0.809, 0.588, -0.588, 0.809, 46.903, 0)">
        <rect id="Rectangle_167-6" data-name="Rectangle 167" width="23.799" height="79.797" transform="translate(0 0)"/>
        <rect id="Rectangle_168-6" data-name="Rectangle 168" width="23.799" height="79.797" transform="translate(76.997 0)"/>
        <rect id="Rectangle_169-6" data-name="Rectangle 169" width="23.799" height="79.797" transform="translate(10.5 79.797) rotate(-90)"/>
      </g>
    </g>
    <g id="Group_105" data-name="Group 105" transform="matrix(-0.105, -0.995, 0.995, -0.105, 200.154, 1867.133)">
      <path id="Path_46-5" data-name="Path 46" d="M0,0H54.1V51.8a10,10,0,0,1-10,10H10a10,10,0,0,1-10-10Z" transform="matrix(0.809, -0.588, 0.588, 0.809, 30.928, 61.496)" fill="#7a7a7a"/>
      <g id="Group_57-7" data-name="Group 57" transform="matrix(0.809, -0.588, 0.588, 0.809, 0, 59.246)">
        <rect id="Rectangle_167-7" data-name="Rectangle 167" width="23.799" height="79.797" transform="translate(0 0)"/>
        <rect id="Rectangle_168-7" data-name="Rectangle 168" width="23.799" height="79.797" transform="translate(76.997 0)"/>
        <rect id="Rectangle_169-7" data-name="Rectangle 169" width="23.799" height="79.797" transform="translate(90.297 0) rotate(90)"/>
      </g>
    </g>
    <g id="Group_111" data-name="Group 111" transform="matrix(-0.97, -0.242, 0.242, -0.97, 571.345, 1623.39)">
      <path id="Path_46-6" data-name="Path 46" d="M0,61.8H54.1V10a10,10,0,0,0-10-10H10A10,10,0,0,0,0,10Z" transform="matrix(0.809, 0.588, -0.588, 0.809, 67.252, 12.312)" fill="#7a7a7a"/>
      <g id="Group_57-8" data-name="Group 57" transform="matrix(0.809, 0.588, -0.588, 0.809, 46.903, 0)">
        <rect id="Rectangle_167-8" data-name="Rectangle 167" width="23.799" height="79.797" transform="translate(0 0)"/>
        <rect id="Rectangle_168-8" data-name="Rectangle 168" width="23.799" height="79.797" transform="translate(76.997 0)"/>
        <rect id="Rectangle_169-8" data-name="Rectangle 169" width="23.799" height="79.797" transform="translate(10.5 79.797) rotate(-90)"/>
      </g>
    </g>
  </g>
</svg>
