<svg xmlns="http://www.w3.org/2000/svg" width="362.423" height="379.896" viewBox="0 0 362.423 379.896">
  <g id="Group_106" data-name="Group 106" transform="translate(-203.479 -1478.842)">
    <g id="Group_99" data-name="Group 99" transform="translate(92 5)">
      <ellipse id="Ellipse_4" data-name="Ellipse 4" cx="71" cy="73" rx="71" ry="73" transform="translate(228 1595)" fill="#031d44"/>
      <g id="Group_96" data-name="Group 96" transform="translate(166.525 1351.054) rotate(27)">
        <g id="Group_80" data-name="Group 80" transform="translate(280.107 -10.358) rotate(47)">
          <path id="Path_46" data-name="Path 46" d="M0,0H54.1V51.8a10,10,0,0,1-10,10H10a10,10,0,0,1-10-10Z" transform="matrix(0.809, -0.588, 0.588, 0.809, 30.928, 61.496)" fill="#9ba5b5"/>
          <g id="Group_57" data-name="Group 57" transform="matrix(0.809, -0.588, 0.588, 0.809, 0, 59.246)">
            <rect id="Rectangle_167" data-name="Rectangle 167" width="23.799" height="79.797" fill="#031d44"/>
            <rect id="Rectangle_168" data-name="Rectangle 168" width="23.799" height="79.797" transform="translate(76.997 0)" fill="#031d44"/>
            <rect id="Rectangle_169" data-name="Rectangle 169" width="23.799" height="79.797" transform="translate(90.296 0) rotate(90)" fill="#031d44"/>
          </g>
        </g>
      </g>
      <g id="Group_97" data-name="Group 97" transform="translate(219.586 1736.454) rotate(-11)">
        <g id="Group_80-2" data-name="Group 80" transform="translate(36.491 93.69) rotate(-49)">
          <path id="Rectangle_176" data-name="Rectangle 176" d="M10,0H44.1a10,10,0,0,1,10,10V61.8a0,0,0,0,1,0,0H0a0,0,0,0,1,0,0V10A10,10,0,0,1,10,0Z" transform="matrix(0.809, 0.588, -0.588, 0.809, 67.252, 12.312)" fill="#9ba5b5"/>
          <g id="Group_57-2" data-name="Group 57" transform="matrix(0.809, 0.588, -0.588, 0.809, 46.903, 0)">
            <rect id="Rectangle_167-2" data-name="Rectangle 167" width="23.799" height="79.797" transform="translate(0 0)" fill="#031d44"/>
            <rect id="Rectangle_168-2" data-name="Rectangle 168" width="23.799" height="79.797" transform="translate(76.997 0)" fill="#031d44"/>
            <rect id="Rectangle_169-2" data-name="Rectangle 169" width="23.799" height="79.797" transform="translate(10.5 79.797) rotate(-90)" fill="#031d44"/>
          </g>
        </g>
      </g>
    </g>
    <g id="Group_100" data-name="Group 100" transform="matrix(-0.588, 0.809, -0.809, -0.588, 613.833, 1657.216)">
      <path id="Path_46-2" data-name="Path 46" d="M0,0H54.1V51.8a10,10,0,0,1-10,10H10a10,10,0,0,1-10-10Z" transform="matrix(0.809, -0.588, 0.588, 0.809, 30.928, 61.496)" fill="#9ba5b5"/>
      <g id="Group_57-3" data-name="Group 57" transform="matrix(0.809, -0.588, 0.588, 0.809, 0, 59.246)">
        <rect id="Rectangle_167-3" data-name="Rectangle 167" width="23.799" height="79.797" fill="#031d44"/>
        <rect id="Rectangle_168-3" data-name="Rectangle 168" width="23.799" height="79.797" transform="translate(76.997 0)" fill="#031d44"/>
        <rect id="Rectangle_169-3" data-name="Rectangle 169" width="23.799" height="79.797" transform="translate(90.296 0) rotate(90)" fill="#031d44"/>
      </g>
    </g>
    <g id="Group_103" data-name="Group 103" transform="matrix(-0.5, 0.866, -0.866, -0.5, 420.724, 1511.12)">
      <path id="Path_46-3" data-name="Path 46" d="M0,61.8H54.1V10a10,10,0,0,0-10-10H10A10,10,0,0,0,0,10Z" transform="matrix(0.809, 0.588, -0.588, 0.809, 67.252, 12.312)" fill="#9ba5b5"/>
      <g id="Group_57-4" data-name="Group 57" transform="matrix(0.809, 0.588, -0.588, 0.809, 46.903, 0)">
        <rect id="Rectangle_167-4" data-name="Rectangle 167" width="23.799" height="79.797" transform="translate(0 0)" fill="#031d44"/>
        <rect id="Rectangle_168-4" data-name="Rectangle 168" width="23.799" height="79.797" transform="translate(76.997 0)" fill="#031d44"/>
        <rect id="Rectangle_169-4" data-name="Rectangle 169" width="23.799" height="79.797" transform="translate(10.5 79.797) rotate(-90)" fill="#031d44"/>
      </g>
    </g>
    <g id="Group_107" data-name="Group 107" transform="translate(274.508 1565.022) rotate(62)">
      <path id="Path_46-4" data-name="Path 46" d="M0,61.8H54.1V10a10,10,0,0,0-10-10H10A10,10,0,0,0,0,10Z" transform="matrix(0.809, 0.588, -0.588, 0.809, 67.252, 12.312)" fill="#9ba5b5"/>
      <g id="Group_57-5" data-name="Group 57" transform="matrix(0.809, 0.588, -0.588, 0.809, 46.903, 0)">
        <rect id="Rectangle_167-5" data-name="Rectangle 167" width="23.799" height="79.797" transform="translate(0 0)" fill="#031d44"/>
        <rect id="Rectangle_168-5" data-name="Rectangle 168" width="23.799" height="79.797" transform="translate(76.997 0)" fill="#031d44"/>
        <rect id="Rectangle_169-5" data-name="Rectangle 169" width="23.799" height="79.797" transform="translate(10.5 79.797) rotate(-90)" fill="#031d44"/>
      </g>
    </g>
    <g id="Group_105" data-name="Group 105" transform="matrix(-0.208, -0.978, 0.978, -0.208, 247.808, 1854.481)">
      <path id="Path_46-5" data-name="Path 46" d="M0,0H54.1V51.8a10,10,0,0,1-10,10H10a10,10,0,0,1-10-10Z" transform="matrix(0.809, -0.588, 0.588, 0.809, 30.928, 61.496)" fill="#9ba5b5"/>
      <g id="Group_57-6" data-name="Group 57" transform="matrix(0.809, -0.588, 0.588, 0.809, 0, 59.246)">
        <rect id="Rectangle_167-6" data-name="Rectangle 167" width="23.799" height="79.797" transform="translate(0 0)" fill="#031d44"/>
        <rect id="Rectangle_168-6" data-name="Rectangle 168" width="23.799" height="79.797" transform="translate(76.997 0)" fill="#031d44"/>
        <rect id="Rectangle_169-6" data-name="Rectangle 169" width="23.799" height="79.797" transform="translate(90.297 0) rotate(90)" fill="#031d44"/>
      </g>
    </g>
  </g>
</svg>
