<svg xmlns="http://www.w3.org/2000/svg" width="513" height="311.797" viewBox="0 0 513 311.797">
  <g id="Group_93" data-name="Group 93" transform="translate(-578 -487.891)">
    <g id="Group_81" data-name="Group 81" transform="translate(526.367 439.96)">
      <g id="Group_80" data-name="Group 80" transform="matrix(0.809, 0.588, -0.588, 0.809, 227.062, 0)">
        <path id="Path_46" data-name="Path 46" d="M0,0H54.1V51.8a10,10,0,0,1-10,10H10a10,10,0,0,1-10-10Z" transform="matrix(0.809, -0.588, 0.588, 0.809, 30.928, 61.496)" fill="#7a7a7a"/>
        <g id="Group_57" data-name="Group 57" transform="matrix(0.809, -0.588, 0.588, 0.809, 0, 59.246)">
          <rect id="Rectangle_167" data-name="Rectangle 167" width="23.799" height="79.797"/>
          <rect id="Rectangle_168" data-name="Rectangle 168" width="23.799" height="79.797" transform="translate(76.997 0)"/>
          <rect id="Rectangle_169" data-name="Rectangle 169" width="23.799" height="79.797" transform="translate(90.296 0) rotate(90)"/>
        </g>
      </g>
      <g id="Group_91" data-name="Group 91" transform="matrix(0.809, 0.588, -0.588, 0.809, 103.062, 0)">
        <path id="Path_46-2" data-name="Path 46" d="M0,0H54.1V51.8a10,10,0,0,1-10,10H10a10,10,0,0,1-10-10Z" transform="matrix(0.809, -0.588, 0.588, 0.809, 30.928, 61.496)" fill="#7a7a7a"/>
        <g id="Group_57-2" data-name="Group 57" transform="matrix(0.809, -0.588, 0.588, 0.809, 0, 59.246)">
          <rect id="Rectangle_167-2" data-name="Rectangle 167" width="23.799" height="79.797"/>
          <rect id="Rectangle_168-2" data-name="Rectangle 168" width="23.799" height="79.797" transform="translate(76.997 0)"/>
          <rect id="Rectangle_169-2" data-name="Rectangle 169" width="23.799" height="79.797" transform="translate(90.296 0) rotate(90)"/>
        </g>
      </g>
      <g id="Group_88" data-name="Group 88" transform="matrix(0.809, 0.588, -0.588, 0.809, 354.062, 0)">
        <path id="Path_46-3" data-name="Path 46" d="M0,0H54.1V51.8a10,10,0,0,1-10,10H10a10,10,0,0,1-10-10Z" transform="matrix(0.809, -0.588, 0.588, 0.809, 30.928, 61.496)" fill="#7a7a7a"/>
        <g id="Group_57-3" data-name="Group 57" transform="matrix(0.809, -0.588, 0.588, 0.809, 0, 59.246)">
          <rect id="Rectangle_167-3" data-name="Rectangle 167" width="23.799" height="79.797"/>
          <rect id="Rectangle_168-3" data-name="Rectangle 168" width="23.799" height="79.797" transform="translate(76.997 0)"/>
          <rect id="Rectangle_169-3" data-name="Rectangle 169" width="23.799" height="79.797" transform="translate(90.296 0) rotate(90)"/>
        </g>
      </g>
      <g id="Group_94" data-name="Group 94" transform="matrix(0.809, 0.588, -0.588, 0.809, 482.062, 0)">
        <path id="Path_46-4" data-name="Path 46" d="M0,0H54.1V51.8a10,10,0,0,1-10,10H10a10,10,0,0,1-10-10Z" transform="matrix(0.809, -0.588, 0.588, 0.809, 30.928, 61.496)" fill="#7a7a7a"/>
        <g id="Group_57-4" data-name="Group 57" transform="matrix(0.809, -0.588, 0.588, 0.809, 0, 59.246)">
          <rect id="Rectangle_167-4" data-name="Rectangle 167" width="23.799" height="79.797"/>
          <rect id="Rectangle_168-4" data-name="Rectangle 168" width="23.799" height="79.797" transform="translate(76.997 0)"/>
          <rect id="Rectangle_169-4" data-name="Rectangle 169" width="23.799" height="79.797" transform="translate(90.296 0) rotate(90)"/>
        </g>
      </g>
    </g>
    <g id="Group_85" data-name="Group 85" transform="translate(680.66 671.96)">
      <g id="Group_80-2" data-name="Group 80" transform="matrix(0.809, -0.588, 0.588, 0.809, 0, 75.501)">
        <path id="Path_47" data-name="Path 47" d="M10,0H44.1a10,10,0,0,1,10,10V61.8H0V10A10,10,0,0,1,10,0Z" transform="matrix(0.809, 0.588, -0.588, 0.809, 67.252, 12.312)" fill="#7a7a7a"/>
        <g id="Group_57-5" data-name="Group 57" transform="matrix(0.809, 0.588, -0.588, 0.809, 46.903, 0)">
          <rect id="Rectangle_167-5" data-name="Rectangle 167" width="23.799" height="79.797" transform="translate(0 0)"/>
          <rect id="Rectangle_168-5" data-name="Rectangle 168" width="23.799" height="79.797" transform="translate(76.997 0)"/>
          <rect id="Rectangle_169-5" data-name="Rectangle 169" width="23.799" height="79.797" transform="translate(10.5 79.797) rotate(-90)"/>
        </g>
      </g>
    </g>
    <g id="Group_92" data-name="Group 92" transform="translate(556.66 671.96)">
      <g id="Group_80-3" data-name="Group 80" transform="matrix(0.809, -0.588, 0.588, 0.809, 0, 75.501)">
        <path id="Path_47-2" data-name="Path 47" d="M10,0H44.1a10,10,0,0,1,10,10V61.8H0V10A10,10,0,0,1,10,0Z" transform="matrix(0.809, 0.588, -0.588, 0.809, 67.252, 12.312)" fill="#7a7a7a"/>
        <g id="Group_57-6" data-name="Group 57" transform="matrix(0.809, 0.588, -0.588, 0.809, 46.903, 0)">
          <rect id="Rectangle_167-6" data-name="Rectangle 167" width="23.799" height="79.797" transform="translate(0 0)"/>
          <rect id="Rectangle_168-6" data-name="Rectangle 168" width="23.799" height="79.797" transform="translate(76.997 0)"/>
          <rect id="Rectangle_169-6" data-name="Rectangle 169" width="23.799" height="79.797" transform="translate(10.5 79.797) rotate(-90)"/>
        </g>
      </g>
    </g>
    <g id="Group_89" data-name="Group 89" transform="translate(807.66 671.96)">
      <g id="Group_80-4" data-name="Group 80" transform="matrix(0.809, -0.588, 0.588, 0.809, 0, 75.501)">
        <path id="Path_48" data-name="Path 48" d="M10,0H44.1a10,10,0,0,1,10,10V61.8H0V10A10,10,0,0,1,10,0Z" transform="matrix(0.809, 0.588, -0.588, 0.809, 67.252, 12.312)" fill="#7a7a7a"/>
        <g id="Group_57-7" data-name="Group 57" transform="matrix(0.809, 0.588, -0.588, 0.809, 46.903, 0)">
          <rect id="Rectangle_167-7" data-name="Rectangle 167" width="23.799" height="79.797" transform="translate(0 0)"/>
          <rect id="Rectangle_168-7" data-name="Rectangle 168" width="23.799" height="79.797" transform="translate(76.997 0)"/>
          <rect id="Rectangle_169-7" data-name="Rectangle 169" width="23.799" height="79.797" transform="translate(10.5 79.797) rotate(-90)"/>
        </g>
      </g>
    </g>
    <g id="Group_95" data-name="Group 95" transform="translate(935.66 671.96)">
      <g id="Group_80-5" data-name="Group 80" transform="matrix(0.809, -0.588, 0.588, 0.809, 0, 75.501)">
        <path id="Path_48-2" data-name="Path 48" d="M10,0H44.1a10,10,0,0,1,10,10V61.8H0V10A10,10,0,0,1,10,0Z" transform="matrix(0.809, 0.588, -0.588, 0.809, 67.252, 12.312)" fill="#7a7a7a"/>
        <g id="Group_57-8" data-name="Group 57" transform="matrix(0.809, 0.588, -0.588, 0.809, 46.903, 0)">
          <rect id="Rectangle_167-8" data-name="Rectangle 167" width="23.799" height="79.797" transform="translate(0 0)"/>
          <rect id="Rectangle_168-8" data-name="Rectangle 168" width="23.799" height="79.797" transform="translate(76.997 0)"/>
          <rect id="Rectangle_169-8" data-name="Rectangle 169" width="23.799" height="79.797" transform="translate(10.5 79.797) rotate(-90)"/>
        </g>
      </g>
    </g>
    <rect id="Rectangle_188" data-name="Rectangle 188" width="513" height="119" rx="20" transform="translate(578 584)"/>
  </g>
</svg>
