<svg xmlns="http://www.w3.org/2000/svg" width="118" height="311.797" viewBox="0 0 118 311.797">
  <g id="Group_98" data-name="Group 98" transform="translate(-240 -1510.891)">
    <circle id="Ellipse_4" data-name="Ellipse 4" cx="59" cy="59" r="59" transform="translate(240 1609)"/>
    <g id="Group_96" data-name="Group 96" transform="translate(47.367 1462.96)">
      <g id="Group_80" data-name="Group 80" transform="matrix(0.809, 0.588, -0.588, 0.809, 236.062, 0)">
        <path id="Path_46" data-name="Path 46" d="M0,0H54.1V51.8a10,10,0,0,1-10,10H10a10,10,0,0,1-10-10Z" transform="matrix(0.809, -0.588, 0.588, 0.809, 30.928, 61.496)" fill="#7a7a7a"/>
        <g id="Group_57" data-name="Group 57" transform="matrix(0.809, -0.588, 0.588, 0.809, 0, 59.246)">
          <rect id="Rectangle_167" data-name="Rectangle 167" width="23.799" height="79.797"/>
          <rect id="Rectangle_168" data-name="Rectangle 168" width="23.799" height="79.797" transform="translate(76.997 0)"/>
          <rect id="Rectangle_169" data-name="Rectangle 169" width="23.799" height="79.797" transform="translate(90.296 0) rotate(90)"/>
        </g>
      </g>
    </g>
    <g id="Group_97" data-name="Group 97" transform="translate(210.66 1694.96)">
      <g id="Group_80-2" data-name="Group 80" transform="matrix(0.809, -0.588, 0.588, 0.809, 0, 75.501)">
        <path id="Rectangle_176" data-name="Rectangle 176" d="M10,0H44.1a10,10,0,0,1,10,10V61.8a0,0,0,0,1,0,0H0a0,0,0,0,1,0,0V10A10,10,0,0,1,10,0Z" transform="matrix(0.809, 0.588, -0.588, 0.809, 67.252, 12.312)" fill="#7a7a7a"/>
        <g id="Group_57-2" data-name="Group 57" transform="matrix(0.809, 0.588, -0.588, 0.809, 46.903, 0)">
          <rect id="Rectangle_167-2" data-name="Rectangle 167" width="23.799" height="79.797" transform="translate(0 0)"/>
          <rect id="Rectangle_168-2" data-name="Rectangle 168" width="23.799" height="79.797" transform="translate(76.997 0)"/>
          <rect id="Rectangle_169-2" data-name="Rectangle 169" width="23.799" height="79.797" transform="translate(10.5 79.797) rotate(-90)"/>
        </g>
      </g>
    </g>
  </g>
</svg>
