<svg xmlns="http://www.w3.org/2000/svg" width="407.107" height="398.725" viewBox="0 0 407.107 398.725">
  <g id="Group_108" data-name="Group 108" transform="translate(-187.479 -1471.836)">
    <g id="Group_99" data-name="Group 99" transform="translate(92 5)">
      <ellipse id="Ellipse_4" data-name="Ellipse 4" cx="86" cy="88" rx="86" ry="88" transform="translate(213 1580)" fill="#2369f6"/>
      <g id="Group_96" data-name="Group 96" transform="matrix(0.966, 0.259, -0.259, 0.966, 109.264, 1376.53)">
        <g id="Group_80" data-name="Group 80" transform="translate(280.107 -10.358) rotate(47)">
          <path id="Path_46" data-name="Path 46" d="M0,0H54.1V51.8a10,10,0,0,1-10,10H10a10,10,0,0,1-10-10Z" transform="matrix(0.809, -0.588, 0.588, 0.809, 30.928, 61.496)" fill="#94b6fb"/>
          <g id="Group_57" data-name="Group 57" transform="matrix(0.809, -0.588, 0.588, 0.809, 0, 59.246)">
            <rect id="Rectangle_167" data-name="Rectangle 167" width="23.799" height="79.797" fill="#2369f6"/>
            <rect id="Rectangle_168" data-name="Rectangle 168" width="23.799" height="79.797" transform="translate(76.997 0)" fill="#2369f6"/>
            <rect id="Rectangle_169" data-name="Rectangle 169" width="23.799" height="79.797" transform="translate(90.296 0) rotate(90)" fill="#2369f6"/>
          </g>
        </g>
      </g>
      <g id="Group_97" data-name="Group 97" transform="translate(192.147 1711.186) rotate(14)">
        <g id="Group_80-2" data-name="Group 80" transform="translate(36.491 93.69) rotate(-49)">
          <path id="Rectangle_176" data-name="Rectangle 176" d="M10,0H44.1a10,10,0,0,1,10,10V61.8a0,0,0,0,1,0,0H0a0,0,0,0,1,0,0V10A10,10,0,0,1,10,0Z" transform="matrix(0.809, 0.588, -0.588, 0.809, 67.252, 12.312)" fill="#94b6fb"/>
          <g id="Group_57-2" data-name="Group 57" transform="matrix(0.809, 0.588, -0.588, 0.809, 46.903, 0)">
            <rect id="Rectangle_167-2" data-name="Rectangle 167" width="23.799" height="79.797" transform="translate(0 0)" fill="#2369f6"/>
            <rect id="Rectangle_168-2" data-name="Rectangle 168" width="23.799" height="79.797" transform="translate(76.997 0)" fill="#2369f6"/>
            <rect id="Rectangle_169-2" data-name="Rectangle 169" width="23.799" height="79.797" transform="translate(10.5 79.797) rotate(-90)" fill="#2369f6"/>
          </g>
        </g>
      </g>
      <g id="Group_109" data-name="Group 109" transform="matrix(0.743, -0.669, 0.669, 0.743, 274.424, 1786.877)">
        <g id="Group_80-3" data-name="Group 80" transform="translate(36.491 93.69) rotate(-49)">
          <path id="Rectangle_176-2" data-name="Rectangle 176" d="M10,0H44.1a10,10,0,0,1,10,10V61.8a0,0,0,0,1,0,0H0a0,0,0,0,1,0,0V10A10,10,0,0,1,10,0Z" transform="matrix(0.809, 0.588, -0.588, 0.809, 67.252, 12.312)" fill="#94b6fb"/>
          <g id="Group_57-3" data-name="Group 57" transform="matrix(0.809, 0.588, -0.588, 0.809, 46.903, 0)">
            <rect id="Rectangle_167-3" data-name="Rectangle 167" width="23.799" height="79.797" transform="translate(0 0)" fill="#2369f6"/>
            <rect id="Rectangle_168-3" data-name="Rectangle 168" width="23.799" height="79.797" transform="translate(76.997 0)" fill="#2369f6"/>
            <rect id="Rectangle_169-3" data-name="Rectangle 169" width="23.799" height="79.797" transform="translate(10.5 79.797) rotate(-90)" fill="#2369f6"/>
          </g>
        </g>
      </g>
    </g>
    <g id="Group_100" data-name="Group 100" transform="translate(623.81 1593.015) rotate(111)">
      <path id="Path_46-2" data-name="Path 46" d="M0,0H54.1V51.8a10,10,0,0,1-10,10H10a10,10,0,0,1-10-10Z" transform="matrix(0.809, -0.588, 0.588, 0.809, 30.928, 61.496)" fill="#94b6fb"/>
      <g id="Group_57-4" data-name="Group 57" transform="matrix(0.809, -0.588, 0.588, 0.809, 0, 59.246)">
        <rect id="Rectangle_167-4" data-name="Rectangle 167" width="23.799" height="79.797" fill="#2369f6"/>
        <rect id="Rectangle_168-4" data-name="Rectangle 168" width="23.799" height="79.797" transform="translate(76.997 0)" fill="#2369f6"/>
        <rect id="Rectangle_169-4" data-name="Rectangle 169" width="23.799" height="79.797" transform="translate(90.296 0) rotate(90)" fill="#2369f6"/>
      </g>
    </g>
    <g id="Group_103" data-name="Group 103" transform="matrix(-0.5, 0.866, -0.866, -0.5, 392.724, 1504.12)">
      <path id="Path_46-3" data-name="Path 46" d="M0,61.8H54.1V10a10,10,0,0,0-10-10H10A10,10,0,0,0,0,10Z" transform="matrix(0.809, 0.588, -0.588, 0.809, 67.252, 12.312)" fill="#94b6fb"/>
      <g id="Group_57-5" data-name="Group 57" transform="matrix(0.809, 0.588, -0.588, 0.809, 46.903, 0)">
        <rect id="Rectangle_167-5" data-name="Rectangle 167" width="23.799" height="79.797" transform="translate(0 0)" fill="#2369f6"/>
        <rect id="Rectangle_168-5" data-name="Rectangle 168" width="23.799" height="79.797" transform="translate(76.997 0)" fill="#2369f6"/>
        <rect id="Rectangle_169-5" data-name="Rectangle 169" width="23.799" height="79.797" transform="translate(10.5 79.797) rotate(-90)" fill="#2369f6"/>
      </g>
    </g>
    <g id="Group_107" data-name="Group 107" transform="translate(258.508 1559.022) rotate(62)">
      <path id="Path_46-4" data-name="Path 46" d="M0,61.8H54.1V10a10,10,0,0,0-10-10H10A10,10,0,0,0,0,10Z" transform="matrix(0.809, 0.588, -0.588, 0.809, 67.252, 12.312)" fill="#94b6fb"/>
      <g id="Group_57-6" data-name="Group 57" transform="matrix(0.809, 0.588, -0.588, 0.809, 46.903, 0)">
        <rect id="Rectangle_167-6" data-name="Rectangle 167" width="23.799" height="79.797" transform="translate(0 0)" fill="#2369f6"/>
        <rect id="Rectangle_168-6" data-name="Rectangle 168" width="23.799" height="79.797" transform="translate(76.997 0)" fill="#2369f6"/>
        <rect id="Rectangle_169-6" data-name="Rectangle 169" width="23.799" height="79.797" transform="translate(10.5 79.797) rotate(-90)" fill="#2369f6"/>
      </g>
    </g>
    <g id="Group_105" data-name="Group 105" transform="matrix(-0.105, -0.995, 0.995, -0.105, 206.154, 1848.133)">
      <path id="Path_46-5" data-name="Path 46" d="M0,0H54.1V51.8a10,10,0,0,1-10,10H10a10,10,0,0,1-10-10Z" transform="matrix(0.809, -0.588, 0.588, 0.809, 30.928, 61.496)" fill="#94b6fb"/>
      <g id="Group_57-7" data-name="Group 57" transform="matrix(0.809, -0.588, 0.588, 0.809, 0, 59.246)">
        <rect id="Rectangle_167-7" data-name="Rectangle 167" width="23.799" height="79.797" transform="translate(0 0)" fill="#2369f6"/>
        <rect id="Rectangle_168-7" data-name="Rectangle 168" width="23.799" height="79.797" transform="translate(76.997 0)" fill="#2369f6"/>
        <rect id="Rectangle_169-7" data-name="Rectangle 169" width="23.799" height="79.797" transform="translate(90.297 0) rotate(90)" fill="#2369f6"/>
      </g>
    </g>
  </g>
</svg>
